<svg id="Layer_1" data-name="Layer 1" xmlns="http://www.w3.org/2000/svg" viewBox="0 0 72 72"><defs><style>.cls-1{fill:#e8262b;}.cls-2{fill:#fff;}</style></defs><title>icon</title><rect class="cls-1" width="72" height="72" rx="8.56"/><g id="Outline"><path class="cls-2" d="M21,48.39a.52.52,0,0,0-.52.52.52.52,0,0,0,.52.52H51a.52.52,0,0,0,.52-.52.52.52,0,0,0-.52-.52H49.84a1.54,1.54,0,0,0,.1-.51V46.33a.52.52,0,1,0-1,0v1.55a.51.51,0,0,1-.52.51H41.68V42.71a.51.51,0,0,1,.52-.51h6.19a.51.51,0,0,1,.52.51v1.55a.52.52,0,1,0,1,0V42.71a1.54,1.54,0,0,0-1.55-1.55H42.2a1.55,1.55,0,0,0-1.46,1A2.61,2.61,0,0,1,38.59,42l-2-1.17.79-2,2.25,1.34a.51.51,0,0,0,.71-.18h0L42.1,37a1.09,1.09,0,0,1,1.41-.47A1,1,0,0,1,44,37.88l0,.06L43,39.54a.52.52,0,0,0,.19.71.51.51,0,0,0,.7-.19,0,0,0,0,1,0,0l.93-1.6A2.09,2.09,0,0,0,45,36.83a2,2,0,0,0-.75-1.07V34.7l4.45,1.78a.51.51,0,0,0,.67-.29.41.41,0,0,0,0-.19V31.87a.52.52,0,1,0-1,0v3.37l-4.13-1.65V30.15L48.4,28.5v1.3a.52.52,0,1,0,1,0V27.74a.51.51,0,0,0-.51-.52.48.48,0,0,0-.2,0l-5.07,2h-2a2.58,2.58,0,0,0-.52,5.11v2.13L39.7,39.06l-4-2.4a4.61,4.61,0,0,0-1.43-.55,3.59,3.59,0,0,0,1.21-2.69V32.9a.52.52,0,0,0-1,0v.52A2.59,2.59,0,0,1,32,36a4.14,4.14,0,0,0,1.39-3.09V30.32a.5.5,0,0,0-.4-.5l-.47-.13a2.44,2.44,0,0,1-1.74-1.6.52.52,0,0,0-.65-.33.45.45,0,0,0-.2.12l-.24.24a5.62,5.62,0,0,1-4,1.67.52.52,0,1,0,0,1,6.72,6.72,0,0,0,4.49-1.7,3.43,3.43,0,0,0,2.13,1.57l.09,0V32.9a3.1,3.1,0,1,1-6.19,0v-.51a.52.52,0,0,0-1,0v.51A4.13,4.13,0,0,0,26.57,36h-3a2.07,2.07,0,0,1-2.07-2.07h0A2.92,2.92,0,0,0,24.12,31a5.29,5.29,0,0,1,5.07-5.35,5.17,5.17,0,0,1,5.26,5.07v.1a.52.52,0,0,0,1,0,6.2,6.2,0,0,0-6.19-6.2h-.12A6.32,6.32,0,0,0,23.09,31a1.88,1.88,0,0,1-1.88,1.88H21a.52.52,0,0,0-.52.52v.51a3.09,3.09,0,0,0,2.25,3,3.62,3.62,0,0,0-1.22,2.7v4.14a3.62,3.62,0,0,0,3.1,3.57v1.07ZM42.2,35.56V34.45h1v.92A2,2,0,0,0,42.2,35.56Zm-2.07-3.69a1.54,1.54,0,0,1,1.55-1.55h1.55v3.1H41.68A1.54,1.54,0,0,1,40.13,31.87ZM30.32,45.29a2.07,2.07,0,0,0-.28-1h.8a.51.51,0,0,1,.51.52v3.61h-3.1v-1A2.06,2.06,0,0,0,30.32,45.29Zm5.16,0h-1v-1h1Zm0,1v2.06H32.39V46.33Zm-5.16-3.1h-1V41.68h1Zm8.35,4.13h2v1h-.52a1.54,1.54,0,0,1-1.46-1ZM30.81,36.74a2.06,2.06,0,0,1-.58,1.2l-.94,1-.94-1a2,2,0,0,1-.59-1.2,4.12,4.12,0,0,0,3,0Zm-8.24,2.87A2.59,2.59,0,0,1,25.16,37h1.6a3,3,0,0,0,.86,1.64L28.93,40a.52.52,0,0,0,.73,0L31,38.67A3.1,3.1,0,0,0,31.82,37h1.49a3.6,3.6,0,0,1,1.86.52l1.31.78-.8,2-1-.56A.51.51,0,0,0,34,40a.5.5,0,0,0-.08.26v1.47a.52.52,0,0,0,1,0v-.57l3.11,1.79a3.59,3.59,0,0,0,2.57.4v3H38.07a.51.51,0,0,0-.52.51,2.55,2.55,0,0,0,.53,1.55H36.52V43.75a.52.52,0,0,0-.52-.52H33.93a.51.51,0,0,0-.51.52v1.54h-1v-.51a1.55,1.55,0,0,0-1-1.45V41.16a.51.51,0,0,0-.51-.51H28.77a.52.52,0,0,0-.52.51v2.07H25.67v-3.1a.52.52,0,1,0-1,0v.52H22.57Zm0,4.14V41.68h2.07v2.07a.51.51,0,0,0,.52.51h3.09a1,1,0,1,1,0,2.07H25.16A2.59,2.59,0,0,1,22.57,43.75Zm3.1,3.61h1.55v1H25.67Z"/><path class="cls-2" d="M51,50.46H21a.52.52,0,1,0,0,1H51a.52.52,0,1,0,0-1Z"/><path class="cls-2" d="M30.69,32.24a.2.2,0,0,1,.3,0,.52.52,0,0,0,.73-.73,1.24,1.24,0,0,0-1.76,0,.52.52,0,0,0,0,.73A.53.53,0,0,0,30.69,32.24Z"/><path class="cls-2" d="M26.85,31.5a.52.52,0,0,0,.73.73.23.23,0,0,1,.31,0,.52.52,0,0,0,.73,0,.53.53,0,0,0,0-.72A1.27,1.27,0,0,0,26.85,31.5Z"/><path class="cls-2" d="M28,33.5a.51.51,0,0,0-.71.14.51.51,0,0,0,.14.72,3.31,3.31,0,0,0,3.67,0,.52.52,0,0,0-.57-.86h0A2.25,2.25,0,0,1,28,33.5Z"/><path class="cls-2" d="M45.29,45.81a.52.52,0,0,0,0,1,1.55,1.55,0,1,0-1.54-1.55.52.52,0,1,0,1,0,.52.52,0,1,1,.51.52Z"/><path class="cls-2" d="M36.52,25.67a.52.52,0,0,1,.51.52.52.52,0,1,0,1,0,1.55,1.55,0,0,0-1.55-1.55.52.52,0,1,0,0,1Z"/><path class="cls-2" d="M36.52,23.61a2.58,2.58,0,0,1,2.58,2.58.52.52,0,1,0,1,0,3.62,3.62,0,0,0-3.61-3.62.52.52,0,0,0-.52.52A.52.52,0,0,0,36.52,23.61Z"/><path class="cls-2" d="M36.52,21.54a4.65,4.65,0,0,1,4.64,4.65.52.52,0,1,0,1,0,5.7,5.7,0,0,0-5.68-5.68.52.52,0,1,0,0,1Z"/></g><path class="cls-2" d="M37,61.88A25.14,25.14,0,1,1,62.17,36.74,25.17,25.17,0,0,1,37,61.88ZM37,13A23.73,23.73,0,1,0,60.76,36.74,23.75,23.75,0,0,0,37,13Z"/></svg>