<svg id="Layer_1" data-name="Layer 1" xmlns="http://www.w3.org/2000/svg" viewBox="0 0 172.22 51"><defs><style>.cls-1{fill:#fff;}.cls-2{fill:#e9242a;}.cls-3{fill:#ec584f;}.cls-4{fill:#2b3a8f;}.cls-5{fill:#2b3b90;}</style></defs><rect class="cls-1" x="-0.05" y="0.08" width="172.27" height="50.92"/><path class="cls-2" d="M50.34,51H-.56a.7.7,0,0,1,0-.38V.47a1,1,0,0,1,0-.39.71.71,0,0,1,.38,0H50a1.29,1.29,0,0,1,.39,0c.14.07.14.21.15.34s0,.4,0,.6V50c0,.19,0,.38,0,.57A.42.42,0,0,1,50.34,51Z"/><path class="cls-3" d="M-.55.09V0h50.9V.08H-.55Z"/><path class="cls-1" d="M45.8,25.54a20.93,20.93,0,1,1-20.53-21A20.95,20.95,0,0,1,45.8,25.54Z"/><path class="cls-4" d="M114.45,1.19H171c.12,0,.24,0,.36,0s.22.06.21.21a2.62,2.62,0,0,0,0,.28V49.35c0,.49,0,.49-.47.49H57.73c-.53,0-.47.06-.47-.48V1.69c0-.56-.08-.5.52-.5Z"/><path class="cls-2" d="M43.09,25.53A18.22,18.22,0,1,1,25.18,7.29,18.25,18.25,0,0,1,43.09,25.53Z"/><path class="cls-1" d="M69.54,17.3H71.6a.35.35,0,0,1,.39.26q2.51,6.7,5,13.39c.08.23.07.31-.2.3H72.87A.32.32,0,0,1,72.5,31c-.16-.58-.36-1.16-.51-1.74a.35.35,0,0,0-.42-.3c-1.4,0-2.8,0-4.2,0-.29,0-.38.1-.45.36-.15.57-.33,1.14-.49,1.71-.05.19-.14.25-.35.25H62.24c-.31,0-.28-.1-.2-.32q1.65-4.35,3.28-8.7L67,17.63c.09-.25.19-.35.47-.34C68.19,17.31,68.86,17.3,69.54,17.3Z"/><path class="cls-1" d="M124.07,30a5.54,5.54,0,0,1-5.14,1.3,2.82,2.82,0,0,1-2.31-3.62,2.44,2.44,0,0,1,1.4-1.65,14,14,0,0,1,2.91-.77,17.11,17.11,0,0,0,2.64-.7c.23-.08.32-.17.27-.43-.11-.59-.31-.83-.91-.92a3.53,3.53,0,0,0-1.48.13,1.21,1.21,0,0,0-.81.79c-.09.22-.2.25-.42.23-1-.12-2-.23-3.08-.32-.27,0-.33-.09-.26-.37a3.38,3.38,0,0,1,3-2.61,14.18,14.18,0,0,1,5,0,3.15,3.15,0,0,1,2.78,3.38c.07,1.52,0,3,0,4.56A4.12,4.12,0,0,0,128,31c.1.2.08.27-.16.27h-3.16a.34.34,0,0,1-.33-.21A3.66,3.66,0,0,1,124.07,30Z"/><path class="cls-1" d="M160.39,22.69c.32-.31.57-.58.83-.83a4.38,4.38,0,0,1,4.73-.49,3.23,3.23,0,0,1,1.42,2.39,8.74,8.74,0,0,1,.08,1.35c0,1.92,0,3.85,0,5.77,0,.3-.08.37-.37.37-1.06,0-2.11,0-3.17,0-.29,0-.38-.07-.37-.37,0-1.8,0-3.6,0-5.4a2,2,0,0,0-.05-.43,1.16,1.16,0,0,0-1-1.08,1.44,1.44,0,0,0-1.49.75,3.31,3.31,0,0,0-.28,1.55c0,1.55,0,3.09,0,4.63,0,.29-.08.36-.36.35h-3.24c-.23,0-.3-.06-.3-.3q0-4.76,0-9.53c0-.24.07-.3.3-.3q1.51,0,3,0c.26,0,.31.1.3.33C160.38,21.83,160.39,22.22,160.39,22.69Z"/><path class="cls-1" d="M155.15,26.15a5.1,5.1,0,0,1-4.88,5.27,7.63,7.63,0,0,1-3.73-.49,5.1,5.1,0,0,1-3-5.19,5.17,5.17,0,0,1,5-4.8,8.37,8.37,0,0,1,3,.25A4.9,4.9,0,0,1,155.15,26.15Z"/><path class="cls-1" d="M83.69,31.48a9,9,0,0,1-3.24-.5,4.53,4.53,0,0,1-2.92-4,6.36,6.36,0,0,1,.3-2.84,4.72,4.72,0,0,1,3.77-3.05,8.81,8.81,0,0,1,4.8.34,4.31,4.31,0,0,1,2.52,2.78c.06.16,0,.23-.15.25l-3.2.43c-.14,0-.24,0-.3-.16a1.66,1.66,0,0,0-1.75-1.12,1.86,1.86,0,0,0-1.84,1.15,3.75,3.75,0,0,0-.11,2.81,2,2,0,0,0,3.77.08c.13-.32.29-.35.58-.31,1,.12,2,.24,2.93.33.28,0,.33.1.25.37a4.83,4.83,0,0,1-4.34,3.41Z"/><path class="cls-1" d="M95.39,17.32c0,1.17,0,2.31,0,3.45,0,.28.07.36.35.35.49,0,1,0,1.46,0,.22,0,.32.05.32.29q0,1.14,0,2.28c0,.24-.09.31-.31.3H95.64c-.18,0-.25.05-.25.24,0,1.22,0,2.45,0,3.67,0,.64.33.9,1,.81a7.13,7.13,0,0,0,.8-.18c.15,0,.21,0,.23.16.07.75.15,1.51.23,2.26,0,.14,0,.23-.15.26a10.25,10.25,0,0,1-3.74.18,2.45,2.45,0,0,1-2.18-2.5c-.14-1.51-.06-3-.06-4.52,0-.33-.1-.4-.4-.38s-.76.14-1,0-.06-.65-.07-1c0-.51,0-1,0-1.53,0-.22,0-.3.27-.29s.55,0,.82,0,.36-.05.35-.33,0-.85,0-1.28c0-.13,0-.24.15-.32,1.21-.6,2.41-1.22,3.61-1.84Z"/><path class="cls-1" d="M134.07,17.28c0,1.19,0,2.31,0,3.42,0,.36.11.44.44.42s.91,0,1.36,0c.24,0,.35,0,.34.32,0,.75,0,1.5,0,2.25,0,.22,0,.31-.29.3-.51,0-1,0-1.53,0-.23,0-.31.05-.31.3,0,1.16,0,2.32,0,3.48,0,.8.35,1.07,1.13.92a2,2,0,0,0,.45-.11c.32-.14.42,0,.45.3.06.68.14,1.36.21,2.05,0,.13,0,.25-.16.28a10.18,10.18,0,0,1-3.81.16,2.35,2.35,0,0,1-2.06-2.16,10.93,10.93,0,0,1-.12-1.71c0-1,0-2.06,0-3.09,0-.36-.1-.46-.44-.42s-.49,0-.74,0-.25-.06-.25-.25V21.35c0-.2.08-.24.26-.24h.92c.19,0,.25-.07.25-.25,0-.45,0-.9,0-1.35,0-.14,0-.25.16-.33Z"/><path class="cls-1" d="M110.19,27.48c.36-1.13.69-2.16,1-3.18s.63-1.94.92-2.91c.07-.21.15-.28.37-.28,1.12,0,2.23,0,3.34,0,.27,0,.3.06.2.29Q114,26.19,112,31a.35.35,0,0,1-.39.26h-2.88a.37.37,0,0,1-.41-.29q-2-4.75-4-9.5c-.13-.32,0-.34.25-.34,1.1,0,2.2,0,3.3,0a.42.42,0,0,1,.49.36C109,23.45,109.56,25.41,110.19,27.48Z"/><path class="cls-1" d="M99.25,26.16c0-1.58,0-3.16,0-4.73,0-.25.07-.32.32-.32q1.64,0,3.27,0c.23,0,.31.06.31.3q0,4.77,0,9.53c0,.24-.08.3-.31.3H99.56c-.25,0-.32-.06-.32-.31C99.25,29.34,99.25,27.75,99.25,26.16Z"/><path class="cls-1" d="M141.82,26.16c0,1.57,0,3.14,0,4.7,0,.33-.1.39-.4.39-1.07,0-2.13,0-3.2,0-.25,0-.32-.07-.32-.32q0-4.74,0-9.5c0-.26.09-.31.33-.31q1.63,0,3.27,0c.25,0,.32.08.31.32C141.81,23,141.82,24.59,141.82,26.16Z"/><path class="cls-1" d="M101.17,17.3h1.71c.2,0,.26.07.26.27q0,1.07,0,2.13c0,.2-.07.26-.27.26H99.5c-.21,0-.26-.07-.26-.26q0-1.07,0-2.13c0-.2.05-.27.26-.27C100.06,17.31,100.61,17.3,101.17,17.3Z"/><path class="cls-1" d="M139.86,20h-1.7c-.19,0-.25-.05-.25-.24,0-.72,0-1.45,0-2.17,0-.18.06-.25.24-.25q1.72,0,3.45,0c.17,0,.22.06.22.23,0,.73,0,1.47,0,2.2,0,.21-.09.23-.25.23Z"/><path class="cls-1" d="M26.42,33.66c-.58,0-1.17,0-1.75,0a.37.37,0,0,1-.43-.31c-.45-1.2-.92-2.4-1.37-3.61a.43.43,0,0,0-.48-.34c-2.25,0-4.51,0-6.76,0a.41.41,0,0,0-.46.31c-.42,1.22-.87,2.43-1.3,3.64a.39.39,0,0,1-.43.31c-1.13,0-2.26,0-3.38,0-.27,0-.32-.06-.22-.32q3.54-9.06,7.06-18.12a.33.33,0,0,1,.39-.26c1.15,0,2.3,0,3.45,0a.34.34,0,0,1,.38.27q3.61,9.07,7.26,18.13c.11.27,0,.31-.22.31C27.58,33.65,27,33.66,26.42,33.66Z"/><path class="cls-1" d="M32.17,20.22l-.73.6a12.41,12.41,0,0,1-3.6,2c-.22.08-.3.07-.3-.2,0-.91,0-1.81,0-2.71a.34.34,0,0,1,.27-.37,10.27,10.27,0,0,0,4.16-3,5.31,5.31,0,0,0,.77-1.35.33.33,0,0,1,.38-.26c.77,0,1.54,0,2.31,0,.27,0,.34.07.34.34,0,1.67,0,3.34,0,5q0,6.52,0,13c0,.33-.09.42-.41.41-.92,0-1.83,0-2.74,0-.35,0-.46-.07-.46-.44,0-4.18,0-8.35,0-12.53Z"/><path class="cls-5" d="M69.51,21.06,71,25.91H68.74c-.77,0-.77,0-.55-.72.42-1.37.83-2.74,1.25-4.11Z"/><path class="cls-5" d="M123.87,27a2.1,2.1,0,0,1-2.38,2.28,1,1,0,0,1-.41-1.94,14,14,0,0,1,1.9-.6l.37-.11C123.87,26.46,123.87,26.46,123.87,27Z"/><path class="cls-5" d="M151.25,26.2a4.79,4.79,0,0,1-.17,1.3,1.79,1.79,0,0,1-1.65,1.33,1.75,1.75,0,0,1-1.75-1.2,4.11,4.11,0,0,1,0-2.93,1.77,1.77,0,0,1,3.32.07A4.08,4.08,0,0,1,151.25,26.2Z"/><path class="cls-2" d="M19,19.44c.81,2.2,1.61,4.37,2.42,6.53.09.23,0,.27-.2.27H16.76c-.18,0-.3,0-.21-.24.78-2.15,1.56-4.29,2.35-6.44C18.91,19.53,18.94,19.51,19,19.44Z"/></svg>