<svg id="Layer_1" data-name="Layer 1" xmlns="http://www.w3.org/2000/svg" viewBox="0 0 172.22 51"><defs><style>.cls-1{fill:#e92329;}.cls-2{fill:#fff;}.cls-3{fill:#2a3a90;}</style></defs><path class="cls-1" d="M51,.32c0-.11,0-.21,0-.32H.07V51H51c0-.13,0-.26,0-.39Q51,25.47,51,.32ZM25.5,46.46a21,21,0,1,1,21-20.95A20.92,20.92,0,0,1,25.5,46.46Z"/><path class="cls-2" d="M70.16,21.27h-.08c-.46,1.51-.91,3-1.37,4.53h2.84C71.07,24.25,70.62,22.76,70.16,21.27Zm0,0h-.08c-.46,1.51-.91,3-1.37,4.53h2.84C71.07,24.25,70.62,22.76,70.16,21.27Zm0,0h-.08c-.46,1.51-.91,3-1.37,4.53h2.84C71.07,24.25,70.62,22.76,70.16,21.27Zm0,0h-.08c-.46,1.51-.91,3-1.37,4.53h2.84C71.07,24.25,70.62,22.76,70.16,21.27Zm0,0h-.08c-.46,1.51-.91,3-1.37,4.53h2.84C71.07,24.25,70.62,22.76,70.16,21.27Zm0,0h-.08c-.46,1.51-.91,3-1.37,4.53h2.84C71.07,24.25,70.62,22.76,70.16,21.27Zm0,0h-.08c-.46,1.51-.91,3-1.37,4.53h2.84C71.07,24.25,70.62,22.76,70.16,21.27Zm54.24,5.28c-.88.27-1.73.51-2.56.81a1,1,0,0,0-.69,1.16,1,1,0,0,0,1.06.72A2.09,2.09,0,0,0,124.4,26.55Zm0,0c-.88.27-1.73.51-2.56.81a1,1,0,0,0-.69,1.16,1,1,0,0,0,1.06.72A2.09,2.09,0,0,0,124.4,26.55ZM70.16,21.27h-.08c-.46,1.51-.91,3-1.37,4.53h2.84C71.07,24.25,70.62,22.76,70.16,21.27Zm0,0h-.08c-.46,1.51-.91,3-1.37,4.53h2.84C71.07,24.25,70.62,22.76,70.16,21.27Zm54.24,5.28c-.88.27-1.73.51-2.56.81a1,1,0,0,0-.69,1.16,1,1,0,0,0,1.06.72A2.09,2.09,0,0,0,124.4,26.55Zm0,0c-.88.27-1.73.51-2.56.81a1,1,0,0,0-.69,1.16,1,1,0,0,0,1.06.72A2.09,2.09,0,0,0,124.4,26.55ZM70.16,21.27h-.08c-.46,1.51-.91,3-1.37,4.53h2.84C71.07,24.25,70.62,22.76,70.16,21.27Zm0,0h-.08c-.46,1.51-.91,3-1.37,4.53h2.84C71.07,24.25,70.62,22.76,70.16,21.27Zm54.24,5.28c-.88.27-1.73.51-2.56.81a1,1,0,0,0-.69,1.16,1,1,0,0,0,1.06.72A2.09,2.09,0,0,0,124.4,26.55Zm27.36-1.33a1.86,1.86,0,0,0-1.66-1.6,1.76,1.76,0,0,0-1.66,1.06,4,4,0,0,0,0,3,1.64,1.64,0,0,0,1.74,1,1.59,1.59,0,0,0,1.46-1.15,11.51,11.51,0,0,0,.26-1.27C151.84,25.87,151.82,25.54,151.76,25.22Zm0,0a1.86,1.86,0,0,0-1.66-1.6,1.76,1.76,0,0,0-1.66,1.06,4,4,0,0,0,0,3,1.64,1.64,0,0,0,1.74,1,1.59,1.59,0,0,0,1.46-1.15,11.51,11.51,0,0,0,.26-1.27C151.84,25.87,151.82,25.54,151.76,25.22ZM124.4,26.55c-.88.27-1.73.51-2.56.81a1,1,0,0,0-.69,1.16,1,1,0,0,0,1.06.72A2.09,2.09,0,0,0,124.4,26.55ZM70.16,21.27h-.08c-.46,1.51-.91,3-1.37,4.53h2.84C71.07,24.25,70.62,22.76,70.16,21.27Zm101.46-20H58.53c-.55,0-.55,0-.55.56V49.2c0,.57,0,.57.55.57H171.66c.55,0,.55,0,.55-.57V1.84C172.21,1.18,172.27,1.24,171.62,1.24ZM138.54,17.49c0-.09.15-.26.23-.26,1.16,0,2.32,0,3.49,0a.32.32,0,0,1,.23.22c0,.82,0,1.65,0,2.53-1.29,0-2.52,0-3.75,0a.29.29,0,0,1-.21-.23C138.52,19,138.52,18.24,138.54,17.49Zm-38.66-.07c0-.07.15-.19.23-.19q1.74,0,3.48,0a.37.37,0,0,1,.24.26c0,.74,0,1.49,0,2.24a.35.35,0,0,1-.24.23c-1.22,0-2.44,0-3.72,0C99.87,19.09,99.86,18.26,99.88,17.42ZM77.39,31.3c-1.27,0-2.53,0-3.8,0a.42.42,0,0,1-.51-.36c-.14-.55-.33-1.08-.48-1.63a.35.35,0,0,0-.4-.3H68a.37.37,0,0,0-.43.31c-.16.57-.32,1.14-.51,1.7a.47.47,0,0,1-.3.27c-1.36,0-2.73,0-4.09,0a.61.61,0,0,1-.15-.05,2,2,0,0,1,.09-.35q2.49-6.66,5-13.31a.48.48,0,0,1,.52-.37h4a.44.44,0,0,1,.48.33q2.49,6.69,5,13.37a2.86,2.86,0,0,1,.1.36Zm12.37-3.19a4.86,4.86,0,0,1-4.27,3.34,10.76,10.76,0,0,1-4.08-.3,4.72,4.72,0,0,1-3.28-4.1,7.11,7.11,0,0,1,.28-2.91A4.73,4.73,0,0,1,82.16,21a9.16,9.16,0,0,1,4.56.2,4.44,4.44,0,0,1,3,3.21l-1.77.25c-.49.07-1,.13-1.48.21-.31,0-.52,0-.68-.35A1.86,1.86,0,0,0,83,24a2.4,2.4,0,0,0-.69.92,3.66,3.66,0,0,0-.1,2.4A1.88,1.88,0,0,0,84,28.8a1.81,1.81,0,0,0,1.89-1.17.51.51,0,0,1,.65-.38c1.09.14,2.18.25,3.32.39Zm7.85,3.23a9,9,0,0,1-3.42,0,2.37,2.37,0,0,1-2-2.34c-.07-1.52-.07-3-.08-4.55,0-.35-.08-.47-.45-.47-1,0-1,0-1-1,0-.55,0-1.09,0-1.64,0-.29.1-.38.37-.36s.48,0,.71,0,.37-.07.36-.34,0-.83,0-1.25a.41.41,0,0,1,.16-.31l3.6-1.86a1.22,1.22,0,0,1,.21,0v1c0,.82,0,1.63,0,2.45,0,.27.08.36.35.35.48,0,1,0,1.46,0,.24,0,.33.09.33.34q0,1.16,0,2.31c0,.24-.08.34-.33.34-.5,0-1,0-1.5,0-.22,0-.31.07-.31.31,0,1.15,0,2.3,0,3.45,0,.68.33.94,1,.83l1-.19c.08.7.17,1.38.22,2.05S98.32,31.22,97.61,31.34Zm6.23-5.17v4.66c0,.47,0,.47-.48.47-1,0-2.06,0-3.09,0-.3,0-.41-.06-.41-.39,0-3.15,0-6.31,0-9.46,0-.31.09-.41.4-.4,1.07,0,2.13,0,3.2,0,.29,0,.39.1.39.39C103.84,23,103.84,24.59,103.84,26.17Zm12.87-4.72-4,9.55a.42.42,0,0,1-.45.3q-1.44,0-2.88,0a.41.41,0,0,1-.45-.31q-2-4.75-3.95-9.51a3.44,3.44,0,0,1-.11-.38l.21,0h3.63c.28,0,.32.18.38.38.57,1.84,1.13,3.68,1.7,5.53l.11.32c.41-1.3.8-2.54,1.2-3.77.23-.73.45-1.45.7-2.17,0-.11.19-.27.29-.27,1.21,0,2.42,0,3.63,0a.45.45,0,0,1,.13.05A2,2,0,0,1,116.71,21.45Zm11.66,9.85c-.94,0-1.88,0-2.81,0a.58.58,0,0,1-.66-.44c-.07-.23-.15-.45-.21-.64a10.37,10.37,0,0,1-1.52.88,5.88,5.88,0,0,1-4.17.11,2.88,2.88,0,0,1-1.33-4.45,2.53,2.53,0,0,1,1.44-.93c1.1-.3,2.23-.53,3.34-.8q.75-.18,1.5-.42c.19-.06.48,0,.48-.37a.85.85,0,0,0-.44-.83,1.88,1.88,0,0,0-.48-.12,1.94,1.94,0,0,0-2.23,1,.41.41,0,0,1-.31.16c-1-.09-1.94-.2-2.92-.31h0c-.19,0-.52,0-.52-.1a1.47,1.47,0,0,1,.09-.65,3.3,3.3,0,0,1,2.79-2.32,13.3,13.3,0,0,1,3.78-.16,6.83,6.83,0,0,1,2.28.43,3.14,3.14,0,0,1,1.88,3c.07,1.31,0,2.63,0,3.95a5.87,5.87,0,0,0,.55,3Zm8.43-.06a9.7,9.7,0,0,1-3.94.14,2.28,2.28,0,0,1-1.94-2.08c-.11-1.12-.11-2.25-.15-3.37,0-.53,0-1.07,0-1.6,0-.21-.07-.31-.29-.3h-.82c-.22,0-.32-.07-.32-.3,0-.79,0-1.57,0-2.35,0-.26.11-.34.34-.33s.5,0,.75,0,.35-.1.34-.35a11.59,11.59,0,0,1,0-1.18.54.54,0,0,1,.21-.39c1.18-.62,2.36-1.22,3.54-1.82a1.53,1.53,0,0,1,.25-.06c0,.17,0,.31,0,.44,0,1,0,2,0,3,0,.28.08.38.37.37.47,0,1,0,1.42,0,.21,0,.3.07.29.29,0,.8,0,1.59,0,2.39,0,.23-.09.31-.32.31h-1.45c-.24,0-.32.08-.32.31,0,1.21,0,2.42,0,3.63a.65.65,0,0,0,.86.67l.52-.1.54-.13c0,.27.07.52.1.77l.18,1.73C137,31.08,137,31.2,136.8,31.24Zm5.71-5.06c0,1.58,0,3.16,0,4.74,0,.29-.08.39-.38.38q-1.62,0-3.24,0c-.27,0-.37-.07-.37-.36q0-4.76,0-9.51c0-.29.1-.38.39-.38h3.24c.27,0,.36.08.36.37C142.5,23,142.51,24.59,142.51,26.18Zm12.33,3.23a5.22,5.22,0,0,1-3.72,2l-1,.09a6.22,6.22,0,0,1-4.29-1.39,5.12,5.12,0,0,1-1.67-4.68,4.93,4.93,0,0,1,2.48-3.82,6.72,6.72,0,0,1,4.15-.76,5.93,5.93,0,0,1,2.84.92,4.89,4.89,0,0,1,2.16,3.71A5.36,5.36,0,0,1,154.84,29.41ZM168.14,31c0,.26-.07.36-.34.35q-1.63,0-3.27,0c-.31,0-.38-.11-.38-.39,0-1.73,0-3.45,0-5.17a4.45,4.45,0,0,0-.08-.81,1.08,1.08,0,0,0-.9-.89,1.29,1.29,0,0,0-1.48.65,3.42,3.42,0,0,0-.3,1.26c0,1.64,0,3.27,0,4.91,0,.35-.11.45-.45.45-1,0-2.09,0-3.13,0-.3,0-.42-.06-.41-.39,0-3.16,0-6.31,0-9.47,0-.29.07-.4.38-.39,1,0,2,0,2.95,0,.27,0,.39.07.37.36s0,.73,0,1.06a11.84,11.84,0,0,1,1.44-1.12,4.18,4.18,0,0,1,3.8-.17,3.09,3.09,0,0,1,1.79,3C168.17,26.46,168.13,28.71,168.14,31Zm-18-7.33a1.76,1.76,0,0,0-1.66,1.06,4,4,0,0,0,0,3,1.64,1.64,0,0,0,1.74,1,1.59,1.59,0,0,0,1.46-1.15,11.51,11.51,0,0,0,.26-1.27c0-.46-.07-.79-.13-1.11A1.86,1.86,0,0,0,150.1,23.62Zm-28.26,3.74a1,1,0,0,0-.69,1.16,1,1,0,0,0,1.06.72,2.09,2.09,0,0,0,2.19-2.69C123.52,26.82,122.67,27.06,121.84,27.36Zm-51.76-6.1c-.46,1.51-.91,3-1.37,4.53h2.84c-.48-1.54-.93-3-1.39-4.52Zm.08,0h-.08c-.46,1.51-.91,3-1.37,4.53h2.84C71.07,24.25,70.62,22.76,70.16,21.27Zm54.24,5.28c-.88.27-1.73.51-2.56.81a1,1,0,0,0-.69,1.16,1,1,0,0,0,1.06.72A2.09,2.09,0,0,0,124.4,26.55Zm0,0c-.88.27-1.73.51-2.56.81a1,1,0,0,0-.69,1.16,1,1,0,0,0,1.06.72A2.09,2.09,0,0,0,124.4,26.55ZM70.16,21.27h-.08c-.46,1.51-.91,3-1.37,4.53h2.84C71.07,24.25,70.62,22.76,70.16,21.27Zm0,0h-.08c-.46,1.51-.91,3-1.37,4.53h2.84C71.07,24.25,70.62,22.76,70.16,21.27Zm54.24,5.28c-.88.27-1.73.51-2.56.81a1,1,0,0,0-.69,1.16,1,1,0,0,0,1.06.72A2.09,2.09,0,0,0,124.4,26.55Zm0,0c-.88.27-1.73.51-2.56.81a1,1,0,0,0-.69,1.16,1,1,0,0,0,1.06.72A2.09,2.09,0,0,0,124.4,26.55ZM70.16,21.27h-.08c-.46,1.51-.91,3-1.37,4.53h2.84C71.07,24.25,70.62,22.76,70.16,21.27Zm0,0h-.08c-.46,1.51-.91,3-1.37,4.53h2.84C71.07,24.25,70.62,22.76,70.16,21.27Zm0,0h-.08c-.46,1.51-.91,3-1.37,4.53h2.84C71.07,24.25,70.62,22.76,70.16,21.27Zm0,0h-.08c-.46,1.51-.91,3-1.37,4.53h2.84C71.07,24.25,70.62,22.76,70.16,21.27Zm0,0h-.08c-.46,1.51-.91,3-1.37,4.53h2.84C71.07,24.25,70.62,22.76,70.16,21.27Zm0,0h-.08c-.46,1.51-.91,3-1.37,4.53h2.84C71.07,24.25,70.62,22.76,70.16,21.27Zm0,0h-.08c-.46,1.51-.91,3-1.37,4.53h2.84C71.07,24.25,70.62,22.76,70.16,21.27Z"/><path class="cls-2" d="M.07,0V51S0,51,0,51V.32A1.83,1.83,0,0,1,.07,0Z"/><path class="cls-3" d="M171.62,1.24H58.53c-.55,0-.55,0-.55.56V49.2c0,.57,0,.57.55.57H171.66c.55,0,.55,0,.55-.57V1.84C172.21,1.18,172.27,1.24,171.62,1.24ZM138.54,17.49c0-.09.15-.26.23-.26,1.16,0,2.32,0,3.49,0a.32.32,0,0,1,.23.22c0,.82,0,1.65,0,2.53-1.29,0-2.52,0-3.75,0a.29.29,0,0,1-.21-.23C138.52,19,138.52,18.24,138.54,17.49Zm-38.66-.07c0-.07.15-.19.23-.19q1.74,0,3.48,0a.37.37,0,0,1,.24.26c0,.74,0,1.49,0,2.24a.35.35,0,0,1-.24.23c-1.22,0-2.44,0-3.72,0C99.87,19.09,99.86,18.26,99.88,17.42ZM77.39,31.3c-1.27,0-2.53,0-3.8,0a.42.42,0,0,1-.51-.36c-.14-.55-.33-1.08-.48-1.63a.35.35,0,0,0-.4-.3H68a.37.37,0,0,0-.43.31c-.16.57-.32,1.14-.51,1.7a.47.47,0,0,1-.3.27c-1.36,0-2.73,0-4.09,0a.61.61,0,0,1-.15-.05,2,2,0,0,1,.09-.35q2.49-6.66,5-13.31a.48.48,0,0,1,.52-.37h4a.44.44,0,0,1,.48.33q2.49,6.69,5,13.37a2.86,2.86,0,0,1,.1.36Zm12.37-3.19a4.86,4.86,0,0,1-4.27,3.34,10.76,10.76,0,0,1-4.08-.3,4.72,4.72,0,0,1-3.28-4.1,7.11,7.11,0,0,1,.28-2.91A4.73,4.73,0,0,1,82.16,21a9.16,9.16,0,0,1,4.56.2,4.44,4.44,0,0,1,3,3.21l-1.77.25c-.49.07-1,.13-1.48.21-.31,0-.52,0-.68-.35A1.86,1.86,0,0,0,83,24a2.4,2.4,0,0,0-.69.92,3.66,3.66,0,0,0-.1,2.4A1.88,1.88,0,0,0,84,28.8a1.81,1.81,0,0,0,1.89-1.17.51.51,0,0,1,.65-.38c1.09.14,2.18.25,3.32.39Zm7.85,3.23a9,9,0,0,1-3.42,0,2.37,2.37,0,0,1-2-2.34c-.07-1.52-.07-3-.08-4.55,0-.35-.08-.47-.45-.47-1,0-1,0-1-1,0-.55,0-1.09,0-1.64,0-.29.1-.38.37-.36s.48,0,.71,0,.37-.07.36-.34,0-.83,0-1.25a.41.41,0,0,1,.16-.31l3.6-1.86a1.22,1.22,0,0,1,.21,0v1c0,.82,0,1.63,0,2.45,0,.27.08.36.35.35.48,0,1,0,1.46,0,.24,0,.33.09.33.34q0,1.16,0,2.31c0,.24-.08.34-.33.34-.5,0-1,0-1.5,0-.22,0-.31.07-.31.31,0,1.15,0,2.3,0,3.45,0,.68.33.94,1,.83l1-.19c.08.7.17,1.38.22,2.05S98.32,31.22,97.61,31.34Zm6.23-5.17v4.66c0,.47,0,.47-.48.47-1,0-2.06,0-3.09,0-.3,0-.41-.06-.41-.39,0-3.15,0-6.31,0-9.46,0-.31.09-.41.4-.4,1.07,0,2.13,0,3.2,0,.29,0,.39.1.39.39C103.84,23,103.84,24.59,103.84,26.17Zm12.87-4.72-4,9.55a.42.42,0,0,1-.45.3q-1.44,0-2.88,0a.41.41,0,0,1-.45-.31q-2-4.75-3.95-9.51a3.44,3.44,0,0,1-.11-.38l.21,0h3.63c.28,0,.32.18.38.38.57,1.84,1.13,3.68,1.7,5.53l.11.32c.41-1.3.8-2.54,1.2-3.77.23-.73.45-1.45.7-2.17,0-.11.19-.27.29-.27,1.21,0,2.42,0,3.63,0a.45.45,0,0,1,.13.05A2,2,0,0,1,116.71,21.45Zm11.66,9.85c-.94,0-1.88,0-2.81,0a.58.58,0,0,1-.66-.44c-.07-.23-.15-.45-.21-.64a10.37,10.37,0,0,1-1.52.88,5.88,5.88,0,0,1-4.17.11,2.88,2.88,0,0,1-1.33-4.45,2.53,2.53,0,0,1,1.44-.93c1.1-.3,2.23-.53,3.34-.8q.75-.18,1.5-.42c.19-.06.48,0,.48-.37a.85.85,0,0,0-.44-.83,1.88,1.88,0,0,0-.48-.12,1.94,1.94,0,0,0-2.23,1,.41.41,0,0,1-.31.16c-1-.09-1.94-.2-2.92-.31h0c-.19,0-.52,0-.52-.1a1.47,1.47,0,0,1,.09-.65,3.3,3.3,0,0,1,2.79-2.32,13.3,13.3,0,0,1,3.78-.16,6.83,6.83,0,0,1,2.28.43,3.14,3.14,0,0,1,1.88,3c.07,1.31,0,2.63,0,3.95a5.87,5.87,0,0,0,.55,3Zm8.43-.06a9.7,9.7,0,0,1-3.94.14,2.28,2.28,0,0,1-1.94-2.08c-.11-1.12-.11-2.25-.15-3.37,0-.53,0-1.07,0-1.6,0-.21-.07-.31-.29-.3h-.82c-.22,0-.32-.07-.32-.3,0-.79,0-1.57,0-2.35,0-.26.11-.34.34-.33s.5,0,.75,0,.35-.1.34-.35a11.59,11.59,0,0,1,0-1.18.54.54,0,0,1,.21-.39c1.18-.62,2.36-1.22,3.54-1.82a1.53,1.53,0,0,1,.25-.06c0,.17,0,.31,0,.44,0,1,0,2,0,3,0,.28.08.38.37.37.47,0,1,0,1.42,0,.21,0,.3.07.29.29,0,.8,0,1.59,0,2.39,0,.23-.09.31-.32.31h-1.45c-.24,0-.32.08-.32.31,0,1.21,0,2.42,0,3.63a.65.65,0,0,0,.86.67l.52-.1.54-.13c0,.27.07.52.1.77l.18,1.73C137,31.08,137,31.2,136.8,31.24Zm5.71-5.06c0,1.58,0,3.16,0,4.74,0,.29-.08.39-.38.38q-1.62,0-3.24,0c-.27,0-.37-.07-.37-.36q0-4.76,0-9.51c0-.29.1-.38.39-.38h3.24c.27,0,.36.08.36.37C142.5,23,142.51,24.59,142.51,26.18Zm12.33,3.23a5.22,5.22,0,0,1-3.72,2l-1,.09a6.22,6.22,0,0,1-4.29-1.39,5.12,5.12,0,0,1-1.67-4.68,4.93,4.93,0,0,1,2.48-3.82,6.72,6.72,0,0,1,4.15-.76,5.93,5.93,0,0,1,2.84.92,4.89,4.89,0,0,1,2.16,3.71A5.36,5.36,0,0,1,154.84,29.41ZM168.14,31c0,.26-.07.36-.34.35q-1.63,0-3.27,0c-.31,0-.38-.11-.38-.39,0-1.73,0-3.45,0-5.17a4.45,4.45,0,0,0-.08-.81,1.08,1.08,0,0,0-.9-.89,1.29,1.29,0,0,0-1.48.65,3.42,3.42,0,0,0-.3,1.26c0,1.64,0,3.27,0,4.91,0,.35-.11.45-.45.45-1,0-2.09,0-3.13,0-.3,0-.42-.06-.41-.39,0-3.16,0-6.31,0-9.47,0-.29.07-.4.38-.39,1,0,2,0,2.95,0,.27,0,.39.07.37.36s0,.73,0,1.06a11.84,11.84,0,0,1,1.44-1.12,4.18,4.18,0,0,1,3.8-.17,3.09,3.09,0,0,1,1.79,3C168.17,26.46,168.13,28.71,168.14,31Z"/><path class="cls-1" d="M25.51,7.32A18.2,18.2,0,1,0,43.71,25.5,18.22,18.22,0,0,0,25.51,7.32Zm3.26,26.37H25.32a.43.43,0,0,1-.47-.32c-.45-1.21-.92-2.41-1.37-3.62a.44.44,0,0,0-.49-.33q-3.34,0-6.69,0a.43.43,0,0,0-.48.34c-.42,1.2-.87,2.4-1.29,3.61a.42.42,0,0,1-.46.32H10.72l-.38,0c.3-.78.57-1.5.85-2.21q3.15-8.09,6.29-16.16a.48.48,0,0,1,.54-.36c1.09,0,2.18,0,3.27,0a.45.45,0,0,1,.52.35l5.4,13.52Q28.1,31,29,33.19c.06.14.11.29.17.47Zm7.67-.5c0,.51,0,.51-.5.51H33.38c-.63,0-.6.11-.6-.58,0-4.09,0-8.19,0-12.28v-.56a12.7,12.7,0,0,1-4.59,2.64,2.55,2.55,0,0,1,0-.34c0-.88,0-1.76,0-2.64,0-.25.11-.35.34-.45a9.87,9.87,0,0,0,4.15-3.07,11.66,11.66,0,0,0,.74-1.29c.06-.1.16-.24.25-.24.92,0,1.84,0,2.8,0,0,.18,0,.34,0,.49Z"/><path class="cls-3" d="M71.55,25.79H68.71c.46-1.51.91-3,1.37-4.53h.08C70.62,22.76,71.07,24.25,71.55,25.79Z"/><path class="cls-3" d="M122.21,29.24a1,1,0,0,1-1.06-.72,1,1,0,0,1,.69-1.16c.83-.3,1.68-.54,2.56-.81A2.09,2.09,0,0,1,122.21,29.24Z"/><path class="cls-3" d="M151.89,26.33a11.51,11.51,0,0,1-.26,1.27,1.59,1.59,0,0,1-1.46,1.15,1.64,1.64,0,0,1-1.74-1,4,4,0,0,1,0-3,1.76,1.76,0,0,1,1.66-1.06,1.86,1.86,0,0,1,1.66,1.6C151.82,25.54,151.84,25.87,151.89,26.33Z"/><path class="cls-1" d="M22.1,26.19h-5C18,24,18.76,21.75,19.6,19.45Z"/></svg>