<?xml version="1.0" encoding="utf-8"?>
<!-- Generator: Adobe Illustrator 25.0.1, SVG Export Plug-In . SVG Version: 6.00 Build 0)  -->
<svg version="1.1" id="Layer_1" xmlns="http://www.w3.org/2000/svg" xmlns:xlink="http://www.w3.org/1999/xlink" x="0px" y="0px"
	 viewBox="0 0 172.2 51" style="enable-background:new 0 0 172.2 51;" xml:space="preserve">
<style type="text/css">
	.st0{fill:#E92229;}
	.st1{fill:#2B378F;}
	.st2{fill:#FFFFFF;}
</style>
<g>
	<rect x="0" y="0.2" class="st0" width="50.6" height="50.6"/>
	<rect x="56.3" y="0.2" class="st1" width="115.9" height="50.6"/>
	<path class="st2" d="M28.8,33.6h-4.1l-1.6-4.2h-7.4l-1.5,4.2h-4L17.5,15h4L28.8,33.6z M22,26.2l-2.6-6.9l-2.5,6.9H22z"/>
	<path class="st2" d="M36.1,33.6h-3.6V20.2c-1.3,1.2-2.8,2.1-4.6,2.7v-3.2c0.9-0.3,1.9-0.9,3-1.7c1.1-0.8,1.8-1.8,2.2-3h2.9V33.6z"
		/>
	<path class="st2" d="M72,28.9h-4.9l-0.7,2.3h-4.4l5.2-13.8H72l5.2,13.8h-4.5L72,28.9z M71.1,25.9l-1.5-5l-1.5,5H71.1z"/>
	<path class="st2" d="M85.5,27.2l3.7,0.4c-0.2,0.8-0.5,1.4-1,2c-0.5,0.6-1,1-1.8,1.3c-0.7,0.3-1.6,0.5-2.7,0.5
		c-1.1,0-1.9-0.1-2.7-0.3c-0.7-0.2-1.3-0.5-1.8-1c-0.5-0.4-0.9-1-1.2-1.6c-0.3-0.6-0.4-1.4-0.4-2.4c0-1,0.2-1.9,0.5-2.6
		c0.3-0.5,0.6-1,1.1-1.4c0.4-0.4,0.9-0.7,1.4-0.9c0.7-0.3,1.7-0.5,2.9-0.5c1.6,0,2.9,0.3,3.7,0.9c0.9,0.6,1.5,1.4,1.8,2.6l-3.6,0.5
		c-0.1-0.4-0.3-0.7-0.6-1c-0.3-0.2-0.7-0.3-1.2-0.3c-0.6,0-1.1,0.2-1.5,0.7c-0.4,0.5-0.6,1.1-0.6,2.1c0,0.8,0.2,1.4,0.6,1.9
		c0.4,0.4,0.9,0.6,1.5,0.6c0.5,0,0.9-0.1,1.3-0.4C85.1,28.2,85.4,27.8,85.5,27.2"/>
	<path class="st2" d="M95.3,17.3v3.8h2.1V24h-2.1v3.6c0,0.4,0,0.7,0.1,0.8c0.1,0.2,0.3,0.3,0.7,0.3c0.3,0,0.7-0.1,1.2-0.2l0.3,2.7
		c-1,0.2-1.8,0.3-2.7,0.3c-1,0-1.7-0.1-2.1-0.4c-0.5-0.2-0.8-0.6-1-1.1c-0.2-0.5-0.3-1.3-0.3-2.4V24h-1.4v-2.8h1.4v-1.8L95.3,17.3z"
		/>
	<path class="st2" d="M99.2,17.3h3.8V20h-3.8V17.3z M99.2,21.2h3.8v10h-3.8V21.2z"/>
	<polygon class="st2" points="104.1,21.2 108.1,21.2 110.1,27.5 112.1,21.2 116,21.2 111.7,31.2 108.3,31.2 	"/>
	<path class="st2" d="M120.3,24.4l-3.7-0.4c0.1-0.6,0.3-1.1,0.6-1.5c0.3-0.4,0.6-0.7,1.1-1c0.4-0.2,0.8-0.3,1.5-0.5
		c0.6-0.1,1.3-0.2,2-0.2c1.2,0,2.1,0.1,2.8,0.2c0.7,0.1,1.3,0.4,1.7,0.8c0.3,0.3,0.6,0.7,0.8,1.2c0.2,0.5,0.3,1,0.3,1.5V29
		c0,0.5,0,0.8,0.1,1.1c0.1,0.3,0.2,0.6,0.4,1h-3.6c-0.1-0.3-0.2-0.5-0.3-0.6c0-0.1-0.1-0.3-0.1-0.6c-0.5,0.5-1,0.8-1.5,1
		c-0.7,0.3-1.5,0.4-2.4,0.4c-1.2,0-2.1-0.3-2.7-0.8c-0.6-0.6-0.9-1.2-0.9-2c0-0.8,0.2-1.4,0.7-1.9c0.4-0.5,1.3-0.9,2.5-1.1
		c1.4-0.3,2.4-0.5,2.8-0.6c0.4-0.1,0.9-0.3,1.4-0.5c0-0.5-0.1-0.8-0.3-1c-0.2-0.2-0.5-0.3-1-0.3c-0.6,0-1.1,0.1-1.4,0.3
		C120.7,23.7,120.5,24,120.3,24.4 M123.7,26.4c-0.5,0.2-1.1,0.4-1.7,0.5c-0.8,0.2-1.3,0.4-1.5,0.6c-0.2,0.2-0.3,0.4-0.3,0.7
		c0,0.3,0.1,0.5,0.3,0.7c0.2,0.2,0.5,0.3,0.9,0.3c0.4,0,0.8-0.1,1.2-0.3c0.4-0.2,0.6-0.5,0.8-0.8c0.2-0.3,0.2-0.7,0.2-1.2V26.4z"/>
	<path class="st2" d="M133.8,17.3v3.8h2.1V24h-2.1v3.6c0,0.4,0,0.7,0.1,0.8c0.1,0.2,0.3,0.3,0.7,0.3c0.3,0,0.7-0.1,1.2-0.2l0.3,2.7
		c-1,0.2-1.8,0.3-2.7,0.3c-1,0-1.7-0.1-2.1-0.4c-0.5-0.2-0.8-0.6-1-1.1c-0.2-0.5-0.3-1.3-0.3-2.4V24h-1.4v-2.8h1.4v-1.8L133.8,17.3z
		"/>
	<path class="st2" d="M137.7,17.3h3.8V20h-3.8V17.3z M137.7,21.2h3.8v10h-3.8V21.2z"/>
	<path class="st2" d="M143.2,26.2c0-1.5,0.5-2.8,1.5-3.8c1-1,2.4-1.5,4.2-1.5c2,0,3.5,0.6,4.5,1.7c0.8,0.9,1.2,2.1,1.2,3.5
		c0,1.5-0.5,2.8-1.5,3.8c-1,1-2.4,1.5-4.2,1.5c-1.6,0-2.9-0.4-3.9-1.2C143.9,29.2,143.2,27.8,143.2,26.2 M147.1,26.2
		c0,0.9,0.2,1.6,0.5,2c0.4,0.4,0.8,0.6,1.4,0.6c0.6,0,1-0.2,1.4-0.6c0.4-0.4,0.5-1.1,0.5-2c0-0.9-0.2-1.5-0.5-1.9
		c-0.4-0.4-0.8-0.6-1.3-0.6c-0.6,0-1,0.2-1.4,0.6C147.3,24.6,147.1,25.3,147.1,26.2"/>
	<path class="st2" d="M156.4,21.2h3.6v1.6c0.5-0.7,1.1-1.1,1.6-1.4c0.5-0.3,1.2-0.4,2-0.4c1.1,0,1.9,0.3,2.5,0.9
		c0.6,0.6,0.9,1.6,0.9,2.9v6.4h-3.9v-5.5c0-0.6-0.1-1.1-0.3-1.3c-0.2-0.3-0.6-0.4-1-0.4c-0.5,0-0.8,0.2-1.1,0.5s-0.4,1-0.4,1.9v4.8
		h-3.8V21.2z"/>
	<path class="st2" d="M25.3,7.4c10,0,18.1,8.1,18.1,18.1c0,10-8.1,18.1-18.1,18.1c-10,0-18.1-8.1-18.1-18.1
		C7.2,15.5,15.3,7.4,25.3,7.4 M25.3,4.7C13.8,4.7,4.5,14,4.5,25.5c0,11.5,9.3,20.8,20.8,20.8S46.1,37,46.1,25.5
		C46.1,14,36.8,4.7,25.3,4.7"/>
</g>
</svg>
