<svg id="Layer_1" data-name="Layer 1" xmlns="http://www.w3.org/2000/svg" viewBox="0 0 72 72"><defs><style>.cls-1{fill:#e8262b;}.cls-2{fill:#fff;}</style></defs><title>icon</title><rect class="cls-1" width="72" height="72" rx="8.56"/><path class="cls-2" d="M38.57,47.58h-1v-5A.51.51,0,0,0,37,42a.52.52,0,0,0-.52.52v5H23.13V37.29h4.29a.52.52,0,0,0,0-1h-4.8a.51.51,0,0,0-.52.51V47.58h-1a.51.51,0,0,0-.51.52v1a2.57,2.57,0,0,0,2.57,2.57H36.51a2.57,2.57,0,0,0,2.58-2.57v-1A.52.52,0,0,0,38.57,47.58Zm-.51,1.55a1.54,1.54,0,0,1-1.55,1.54h-1v-.52a.52.52,0,0,0-.52-.51.51.51,0,0,0-.51.51v.52H25.19v-.52a.52.52,0,0,0-1,0v.52h-1a1.54,1.54,0,0,1-1.54-1.54v-.52H38.06Z"/><path class="cls-2" d="M47.32,23.9h1a.51.51,0,0,0,.52-.51.52.52,0,0,0-.52-.52h-1a1.54,1.54,0,0,0-1.54,1.55v.51h-.52a.52.52,0,0,0-.51.52.51.51,0,0,0,.51.51h.52v1.55a.52.52,0,0,0,1,0V26h.51a.51.51,0,0,0,.52-.51.52.52,0,0,0-.52-.52h-.51v-.51A.52.52,0,0,1,47.32,23.9Z"/><path class="cls-2" d="M49.9,20.82H43.72a1.53,1.53,0,0,0-1.54,1.54v1a.51.51,0,0,0,.51.51.52.52,0,0,0,.52-.51v-1a.51.51,0,0,1,.51-.51H49.9a.51.51,0,0,1,.51.51v6.18a.51.51,0,0,1-.51.51H43.72a.51.51,0,0,1-.51-.51V25.45a.53.53,0,0,0-.52-.52.52.52,0,0,0-.51.52v3.09a1.53,1.53,0,0,0,1.54,1.54H49.9a1.54,1.54,0,0,0,1.54-1.54V22.36A1.53,1.53,0,0,0,49.9,20.82Z"/><path class="cls-2" d="M44.75,41.4a2.06,2.06,0,1,0,2.06-2A2.06,2.06,0,0,0,44.75,41.4Zm3.09,0a1,1,0,1,1-1-1A1,1,0,0,1,47.84,41.4Z"/><path class="cls-2" d="M49.9,36.77H43.72a1.54,1.54,0,0,0-1.54,1.55v6.17A1.54,1.54,0,0,0,43.72,46H49.9a1.54,1.54,0,0,0,1.54-1.55v-1a.52.52,0,0,0-1,0v1a.51.51,0,0,1-.51.52H43.72a.51.51,0,0,1-.51-.52V38.32a.51.51,0,0,1,.51-.52H49.9a.51.51,0,0,1,.51.52V41.4a.52.52,0,1,0,1,0V38.32A1.54,1.54,0,0,0,49.9,36.77Z"/><path class="cls-2" d="M32.13,26.92a.5.5,0,0,0,.27.07.46.46,0,0,0,.23-.06l3.09-1.54a.51.51,0,0,0,.22-.69.54.54,0,0,0-.22-.23l-3.09-1.54a.51.51,0,0,0-.69.22.46.46,0,0,0-.06.23v3.09A.52.52,0,0,0,32.13,26.92Zm.78-2.69,1.42.7-1.42.71Z"/><path class="cls-2" d="M33.43,29.57a4.64,4.64,0,1,0-4.64-4.64A4.63,4.63,0,0,0,33.43,29.57Zm0-8.24a3.61,3.61,0,1,1-3.61,3.6A3.61,3.61,0,0,1,33.43,21.33Z"/><path class="cls-2" d="M38.57,31.62a.53.53,0,0,0,.42-.2l1.54-2.06a.51.51,0,1,0-.82-.62L38.16,30.8a.52.52,0,0,0,.1.72A.5.5,0,0,0,38.57,31.62Z"/><path class="cls-2" d="M39.71,33.48a.52.52,0,0,0,.72.1L42.49,32a.52.52,0,0,0,.1-.72.52.52,0,0,0-.72-.11l-2.06,1.55a.5.5,0,0,0-.1.72Z"/><path class="cls-2" d="M44.75,34.61a.53.53,0,0,0-.6-.42h0l-2.57.51a.52.52,0,0,0-.46.57.51.51,0,0,0,.56.46h.1l2.58-.51a.54.54,0,0,0,.42-.6Z"/><path class="cls-2" d="M21.07,34.71h6.18a.51.51,0,0,0,.51-.51V26a.51.51,0,0,0-.51-.51H21.07a.51.51,0,0,0-.51.51V34.2A.51.51,0,0,0,21.07,34.71Zm.52-8.23h5.15v7.2H21.59Z"/><path class="cls-2" d="M25.19,27.51h-1a.52.52,0,0,0,0,1h1a.52.52,0,1,0,0-1Z"/><path class="cls-2" d="M25.19,29.57H23.13a.51.51,0,0,0-.51.51.52.52,0,0,0,.51.52h2.06a.53.53,0,0,0,.52-.52A.52.52,0,0,0,25.19,29.57Z"/><path class="cls-2" d="M25.19,31.62H23.13a.52.52,0,0,0-.51.52.51.51,0,0,0,.51.51h2.06a.52.52,0,0,0,.52-.51A.53.53,0,0,0,25.19,31.62Z"/><path class="cls-2" d="M38.12,34.56a.5.5,0,0,0-.7-.19.51.51,0,0,0-.2.7L39.49,39l-8.23,3.09h-.08l-1.34.77-.89.51a1,1,0,0,1-.78.11,1,1,0,0,1-.62-.48l-1-1.78a1,1,0,0,1,.38-1.36l1.78-1L30,41.06a.52.52,0,0,0,1-.26.59.59,0,0,0-.07-.26l-1.33-2.29L36,32.92l.21.37a.51.51,0,0,0,.71.19.52.52,0,0,0,.19-.7l-.51-.89a.55.55,0,0,0-.36-.25.58.58,0,0,0-.42.11l-7.21,5.94L26.41,39a2.05,2.05,0,0,0-.94,2.33l-.52.29a1.55,1.55,0,0,0-.57,2.11,1.51,1.51,0,0,0,.94.72,1.75,1.75,0,0,0,.4.05,1.61,1.61,0,0,0,.77-.2L27,44a2,2,0,0,0,.9.54,2,2,0,0,0,.54.07,2.1,2.1,0,0,0,1-.28l.45-.26,1,1.79a1.54,1.54,0,1,0,2.67-1.54h0l-.94-1.64,7.72-2.89a.51.51,0,0,0,.3-.31.5.5,0,0,0,0-.43ZM26,43.35a.52.52,0,0,1-.39.06.57.57,0,0,1-.31-.24.51.51,0,0,1-.06-.4.55.55,0,0,1,.25-.31l.45-.26.51.89Zm6.78,1.45a.48.48,0,0,1,0,.39.52.52,0,0,1-.95.12l-1-1.79.86-.49h0Z"/><path class="cls-2" d="M37,61.13A25.14,25.14,0,1,1,62.17,36,25.17,25.17,0,0,1,37,61.13Zm0-48.87A23.73,23.73,0,1,0,60.76,36,23.75,23.75,0,0,0,37,12.26Z"/></svg>