<svg id="Layer_1" data-name="Layer 1" xmlns="http://www.w3.org/2000/svg" viewBox="0 0 72 72"><defs><style>.cls-1{fill:#e8262b;}.cls-2{fill:#fff;}</style></defs><title>icon</title><rect class="cls-1" width="72" height="72" rx="8.56"/><path class="cls-2" d="M40.63,39.23a.42.42,0,0,0-.54-.25.41.41,0,0,0-.26.54h0c.38,1,.41,1.78.07,2.12s-1.43.28-2.73-.34a18.12,18.12,0,0,1-4.7-3.5c-3.32-3.32-4.69-6.58-3.84-7.43a1.14,1.14,0,0,1,1-.22.43.43,0,0,0,.45-.4.42.42,0,0,0-.37-.45,2,2,0,0,0-1.64.47c-1.56,1.55.82,5.6,3.84,8.63a19.09,19.09,0,0,0,4.93,3.67,7.44,7.44,0,0,0,1,.4l-3,1.15a12,12,0,0,1-7.59-9.35.43.43,0,0,0-.48-.36.44.44,0,0,0-.36.49q.11.63.27,1.26a12.86,12.86,0,0,0,7,8.38l-5,1.88a.43.43,0,0,0-.09-.1,5.93,5.93,0,0,1-2.19-4.11l-.19-2.38a.43.43,0,0,0-.45-.4h0a.43.43,0,0,0-.39.46h0l.2,2.38a6.77,6.77,0,0,0,2.25,4.47l-3.54,1.34L25,45a.44.44,0,0,0-.32-.52.43.43,0,0,0-.51.31l-.83,3.4a.44.44,0,0,0,.32.51.43.43,0,0,0,.25,0l15.69-5.94.06,0a1.74,1.74,0,0,0,.91-.45C40.93,41.84,41.29,41,40.63,39.23Z"/><path class="cls-2" d="M44.63,38.14a13.94,13.94,0,0,0-7.18-.7l-1.52.25a.42.42,0,0,0-.33.5.42.42,0,0,0,.47.34l1.52-.25a13.15,13.15,0,0,1,6.75.65.37.37,0,0,0,.15,0,.42.42,0,0,0,.42-.42A.45.45,0,0,0,44.63,38.14Z"/><path class="cls-2" d="M46.14,31.57a.43.43,0,0,0-.57-.2l-8.9,4.24a.43.43,0,0,0-.2.57h0a.42.42,0,0,0,.56.2h0l8.91-4.24A.43.43,0,0,0,46.14,31.57Z"/><path class="cls-2" d="M33.58,26.15a.42.42,0,1,0-.83.17h0a11.94,11.94,0,0,1-.64,7.18L31.5,35a.43.43,0,0,0,.23.56.41.41,0,0,0,.16,0,.42.42,0,0,0,.39-.26l.62-1.48A12.71,12.71,0,0,0,33.58,26.15Z"/><path class="cls-2" d="M46.6,38.54a1.27,1.27,0,1,0,1.27,1.27A1.27,1.27,0,0,0,46.6,38.54Zm0,1.69a.43.43,0,1,1,.42-.42A.42.42,0,0,1,46.6,40.23Z"/><path class="cls-2" d="M36.42,26.66a1.28,1.28,0,1,0,1.28,1.27A1.27,1.27,0,0,0,36.42,26.66Zm0,1.7a.43.43,0,1,1,.43-.43A.42.42,0,0,1,36.42,28.36Z"/><circle class="cls-2" cx="32.61" cy="24.12" r="0.85"/><path class="cls-2" d="M44.48,25.39a.42.42,0,0,0-.42.42v.43a.42.42,0,0,0,.84,0v-.43A.42.42,0,0,0,44.48,25.39Z"/><path class="cls-2" d="M44.48,23.27a.42.42,0,0,0-.42.42v.43a.42.42,0,1,0,.84,0v-.43A.42.42,0,0,0,44.48,23.27Z"/><path class="cls-2" d="M45.75,24.54h-.42a.43.43,0,1,0,0,.85h.42a.43.43,0,1,0,0-.85Z"/><path class="cls-2" d="M43.63,24.54h-.42a.43.43,0,1,0,0,.85h.42a.43.43,0,1,0,0-.85Z"/><path class="cls-2" d="M41.51,27.92H39.38a.42.42,0,0,0-.42.43v2.13a.42.42,0,0,0,.42.42h2.13a.42.42,0,0,0,.43-.42V28.35A.43.43,0,0,0,41.51,27.92Zm-.42,2.13H39.81V28.77h1.28Z"/><path class="cls-2" d="M38.42,31.46a.43.43,0,0,0-.59,0l-4.24,3.82a.42.42,0,1,0,.57.63l4.24-3.82A.42.42,0,0,0,38.42,31.46Z"/><path class="cls-2" d="M46.18,33a.43.43,0,0,0-.43.43v.42a.43.43,0,0,0,.85,0v-.42A.42.42,0,0,0,46.18,33Z"/><path class="cls-2" d="M48,33l-.3-.3a.42.42,0,0,0-.6,0,.42.42,0,0,0,0,.59l.3.3A.42.42,0,0,0,48,33Z"/><path class="cls-2" d="M48.3,31.33h-.43a.42.42,0,1,0,0,.84h.43a.42.42,0,0,0,0-.84Z"/><path class="cls-2" d="M48,30a.42.42,0,0,0-.59,0l-.3.31a.41.41,0,0,0,0,.59.42.42,0,0,0,.3.13h0a.43.43,0,0,0,.3-.13l.3-.3A.43.43,0,0,0,48,30Z"/><path class="cls-2" d="M46.18,29.21a.42.42,0,0,0-.43.42v.42a.43.43,0,1,0,.85,0v-.42A.42.42,0,0,0,46.18,29.21Z"/><path class="cls-2" d="M45.28,30.25,45,30a.42.42,0,0,0-.6,0,.44.44,0,0,0,0,.59l.31.3a.43.43,0,0,0,.6,0A.44.44,0,0,0,45.28,30.25Z"/><path class="cls-2" d="M28.35,25.1a.41.41,0,0,0-.35-.28l-1.24-.18-.56-1.13a.44.44,0,0,0-.6-.16.49.49,0,0,0-.16.16l-.56,1.12-1.24.19a.43.43,0,0,0-.36.48.47.47,0,0,0,.13.24l.9.88-.22,1.24a.44.44,0,0,0,.35.5.42.42,0,0,0,.27-.05l1.11-.58,1.12.58a.42.42,0,0,0,.57-.18.43.43,0,0,0,0-.27l-.21-1.24.9-.88A.42.42,0,0,0,28.35,25.1ZM26.59,26a.42.42,0,0,0-.13.38l.11.61L26,26.66a.45.45,0,0,0-.39,0l-.56.29.11-.61a.44.44,0,0,0-.12-.38l-.45-.43.62-.09a.41.41,0,0,0,.32-.23l.27-.56.28.56a.41.41,0,0,0,.32.23l.61.09Z"/><path class="cls-2" d="M47.29,44.52h0l-.18-.25a6.4,6.4,0,0,0-4.25-2.76.43.43,0,0,0-.14.84A5.52,5.52,0,0,1,46,44.15a2.53,2.53,0,0,0-1.69,1.17,1.69,1.69,0,1,0,3,1.65,2.43,2.43,0,0,0,.27-1.08,2.08,2.08,0,0,1,.1,2.2.41.41,0,0,0,.14.58.43.43,0,0,0,.59-.15,0,0,0,0,1,0,0A3,3,0,0,0,47.29,44.52Zm-.81,2A.85.85,0,1,1,45,45.74a0,0,0,0,1,0,0A1.6,1.6,0,0,1,46.15,45a.49.49,0,0,1,.21,0C46.71,45.23,46.73,46.09,46.48,46.55Z"/><path class="cls-2" d="M36,61.13A25.14,25.14,0,1,1,61.14,36,25.17,25.17,0,0,1,36,61.13Zm0-48.87A23.73,23.73,0,1,0,59.72,36,23.75,23.75,0,0,0,36,12.26Z"/></svg>