<svg xmlns="http://www.w3.org/2000/svg" viewBox="0 0 186.28 76.03"><defs><style>.cls-1{fill:#e8262b;}.cls-2,.cls-3{fill:#fff;}.cls-3{font-size:28.01px;font-family:Arial-BoldMT, Arial;font-weight:700;}</style></defs><title>A1</title><g id="Layer_2" data-name="Layer 2"><g id="Layer_1-2" data-name="Layer 1"><rect class="cls-1" width="54.73" height="54.73"/><path class="cls-2" d="M185.06,53.51H62.17V1.22H185.06ZM186.28,0H61V54.73H186.28Z"/><path class="cls-2" d="M185.06,53.51H62.17V1.22H185.06ZM186.28,0H61V54.73H186.28Z"/><text class="cls-3" transform="translate(11.11 36.1)">A</text><text class="cls-3" transform="translate(28.03 36.1)">1</text><path class="cls-2" d="M77.9,31H72.66l-.73,2.47H67.21l5.62-15h5l5.62,15H78.65ZM77,27.8,75.3,22.42,73.66,27.8Z"/><path class="cls-2" d="M92.51,29.25l3.95.45a5.46,5.46,0,0,1-1.07,2.14,4.91,4.91,0,0,1-1.9,1.4,7.33,7.33,0,0,1-2.94.5,10.7,10.7,0,0,1-2.88-.32,5,5,0,0,1-2-1,5.43,5.43,0,0,1-1.3-1.68,6,6,0,0,1-.46-2.57,5.91,5.91,0,0,1,.57-2.78,5,5,0,0,1,1.14-1.47,5.23,5.23,0,0,1,1.49-1,8.33,8.33,0,0,1,3.11-.5,7.15,7.15,0,0,1,4,.95,5,5,0,0,1,2,2.77l-3.91.52a1.75,1.75,0,0,0-.67-1,2.4,2.4,0,0,0-3,.38,3.4,3.4,0,0,0-.63,2.24,2.94,2.94,0,0,0,.63,2,2.09,2.09,0,0,0,1.61.69,2.19,2.19,0,0,0,1.37-.42,2.48,2.48,0,0,0,.83-1.29"/><path class="cls-2" d="M103.13,18.54v4.12h2.28v3h-2.28v3.84a2.08,2.08,0,0,0,.13.92.78.78,0,0,0,.72.35,4.49,4.49,0,0,0,1.28-.27l.31,2.87a13.84,13.84,0,0,1-2.88.33,5.12,5.12,0,0,1-2.29-.39,2.46,2.46,0,0,1-1.08-1.21A7,7,0,0,1,99,29.52V25.7H97.44v-3H99v-2Z"/><path class="cls-2" d="M107.3,18.54h4.15v2.83H107.3Zm0,4.12h4.15V33.5H107.3Z"/><polygon class="cls-2" points="112.63 22.66 116.95 22.66 119.05 29.53 121.23 22.66 125.42 22.66 120.81 33.5 117.13 33.5 112.63 22.66"/><path class="cls-2" d="M130.15,26.17l-4-.41a4.32,4.32,0,0,1,.65-1.64,3.59,3.59,0,0,1,1.21-1,5.37,5.37,0,0,1,1.58-.49,13.14,13.14,0,0,1,2.16-.17,17.2,17.2,0,0,1,3,.21,3.94,3.94,0,0,1,1.89.87,3.08,3.08,0,0,1,.83,1.3,4.58,4.58,0,0,1,.31,1.61v4.78a6.23,6.23,0,0,0,.09,1.2,5.68,5.68,0,0,0,.43,1.11h-3.9a3,3,0,0,1-.3-.64,4.2,4.2,0,0,1-.15-.69,5.31,5.31,0,0,1-1.62,1.13,6.93,6.93,0,0,1-2.56.44,4.32,4.32,0,0,1-2.94-.89,3.05,3.05,0,0,1-.28-4.25,4.89,4.89,0,0,1,2.67-1.18q2.34-.47,3-.66a14,14,0,0,0,1.47-.49,1.5,1.5,0,0,0-.32-1.08,1.6,1.6,0,0,0-1.11-.3,2.85,2.85,0,0,0-1.53.33,1.75,1.75,0,0,0-.64,1m3.6,2.19c-.57.2-1.17.38-1.79.54a4.09,4.09,0,0,0-1.6.66,1.06,1.06,0,0,0-.35.77,1,1,0,0,0,.35.8,1.41,1.41,0,0,0,1,.31,2.54,2.54,0,0,0,1.29-.34,2,2,0,0,0,.85-.82,2.82,2.82,0,0,0,.25-1.26Z"/><path class="cls-2" d="M144.7,18.54v4.12H147v3H144.7v3.84a2.08,2.08,0,0,0,.13.92.78.78,0,0,0,.72.35,4.49,4.49,0,0,0,1.28-.27l.31,2.87a13.84,13.84,0,0,1-2.88.33,5.07,5.07,0,0,1-2.28-.39,2.43,2.43,0,0,1-1.09-1.21,7,7,0,0,1-.35-2.62V25.7H139v-3h1.53v-2Z"/><path class="cls-2" d="M148.87,18.54H153v2.83h-4.15Zm0,4.12H153V33.5h-4.15Z"/><path class="cls-2" d="M154.91,28.11A5.43,5.43,0,0,1,156.58,24a6.28,6.28,0,0,1,4.52-1.61A6.21,6.21,0,0,1,166,24.31a5.46,5.46,0,0,1,1.34,3.74,5.47,5.47,0,0,1-1.66,4.1,6.37,6.37,0,0,1-4.59,1.59,6.44,6.44,0,0,1-4.22-1.32,5.33,5.33,0,0,1-2-4.31m4.16,0a3.3,3.3,0,0,0,.59,2.15,1.85,1.85,0,0,0,1.47.69,1.87,1.87,0,0,0,1.48-.68,3.43,3.43,0,0,0,.57-2.2A3.14,3.14,0,0,0,162.6,26a1.79,1.79,0,0,0-1.44-.69,1.88,1.88,0,0,0-1.5.7,3.23,3.23,0,0,0-.59,2.12"/><path class="cls-2" d="M169.11,22.66H173v1.77a5.74,5.74,0,0,1,1.76-1.55,4.6,4.6,0,0,1,2.16-.46,3.56,3.56,0,0,1,2.7,1,4.47,4.47,0,0,1,1,3.17V33.5h-4.17v-6A2.16,2.16,0,0,0,176,26.1a1.35,1.35,0,0,0-1.06-.43,1.48,1.48,0,0,0-1.22.58,3.27,3.27,0,0,0-.47,2.05v5.2h-4.15Z"/><path class="cls-2" d="M27.36,7.77A19.59,19.59,0,1,1,7.77,27.36,19.61,19.61,0,0,1,27.36,7.77m0-2.88A22.48,22.48,0,1,0,49.84,27.36,22.47,22.47,0,0,0,27.36,4.89"/><rect class="cls-2" x="0.95" y="65.2" width="0.83" height="8.31"/><path class="cls-2" d="M9.56,69.87v3.64H8.77V69.87a1.5,1.5,0,0,0-1.61-1.68c-1.14,0-1.92.7-1.92,2.21v3.11H4.45V67.58h.79v.92a2.19,2.19,0,0,1,2-1.07,2.22,2.22,0,0,1,2.33,2.44"/><path class="cls-2" d="M17.07,69.87v3.64h-.78V69.87a1.5,1.5,0,0,0-1.62-1.68c-1.14,0-1.92.7-1.92,2.21v3.11H12V67.58h.78v.92a2.19,2.19,0,0,1,2-1.07,2.22,2.22,0,0,1,2.32,2.44"/><path class="cls-2" d="M22.25,73.66A3.06,3.06,0,0,1,20,72.77a3,3,0,0,1-.91-2.22A3,3,0,0,1,20,68.34a3.13,3.13,0,0,1,5.34,2.21,3.07,3.07,0,0,1-3.12,3.11m0-.76a2.27,2.27,0,0,0,1.66-.68,2.31,2.31,0,0,0,.68-1.67,2.28,2.28,0,0,0-.68-1.67,2.34,2.34,0,0,0-4,1.67,2.32,2.32,0,0,0,2.34,2.35"/><polygon class="cls-2" points="31.6 67.58 32.43 67.58 30 73.51 29.05 73.51 26.62 67.58 27.45 67.58 29.52 72.69 31.6 67.58"/><path class="cls-2" d="M39.14,67.58h.78v5.93h-.78V72.35a2.66,2.66,0,0,1-2.4,1.31,2.94,2.94,0,0,1-2.17-.91,3.18,3.18,0,0,1,0-4.41,2.93,2.93,0,0,1,2.17-.9,2.67,2.67,0,0,1,2.4,1.3ZM36.8,72.9a2.27,2.27,0,0,0,1.66-.68,2.31,2.31,0,0,0,.68-1.67,2.28,2.28,0,0,0-.68-1.67,2.37,2.37,0,0,0-3.32,0,2.28,2.28,0,0,0-.68,1.67,2.31,2.31,0,0,0,.68,1.67,2.27,2.27,0,0,0,1.66.68"/><path class="cls-2" d="M45.62,68.34H43.91v3.59c0,1,.57.94,1.71.89v.69c-1.66.25-2.49-.2-2.49-1.58V68.34H41.88v-.76h1.25V66.15l.78-.23v1.66h1.71Z"/><path class="cls-2" d="M47.81,66.15a.57.57,0,1,1,.8,0,.55.55,0,0,1-.8,0m0,1.43h.78v5.93h-.78Z"/><polygon class="cls-2" points="55.43 67.58 56.26 67.58 53.82 73.51 52.87 73.51 50.44 67.58 51.27 67.58 53.35 72.69 55.43 67.58"/><path class="cls-2" d="M62.73,68.37a3.26,3.26,0,0,1,.82,2.2,3.32,3.32,0,0,1,0,.37H58.31a2.23,2.23,0,0,0,2.36,2,2.08,2.08,0,0,0,1.91-1l.69.4a3,3,0,0,1-2.61,1.37,3.09,3.09,0,0,1-2.28-.88,3.27,3.27,0,0,1,0-4.45,3,3,0,0,1,2.23-.89,2.66,2.66,0,0,1,2.13.93m-4.42,1.81h4.43A2.2,2.2,0,0,0,62,68.72a2.11,2.11,0,0,0-1.42-.52,2.22,2.22,0,0,0-2.29,2"/><path class="cls-2" d="M65.28,73.44a.66.66,0,0,1,0-.92.67.67,0,0,1,.93,0,.66.66,0,0,1,0,.92.67.67,0,0,1-.93,0"/><rect class="cls-2" x="72.81" y="65.2" width="0.83" height="8.31"/><path class="cls-2" d="M81.41,69.87v3.64h-.78V69.87A1.5,1.5,0,0,0,79,68.19c-1.14,0-1.92.7-1.92,2.21v3.11h-.78V67.58h.78v.92a2.19,2.19,0,0,1,2-1.07,2.22,2.22,0,0,1,2.32,2.44"/><path class="cls-2" d="M85.66,70.14c1,.25,2.25.52,2.25,1.81a1.5,1.5,0,0,1-.61,1.23,2.36,2.36,0,0,1-1.54.48,2.32,2.32,0,0,1-2.29-1.37l.66-.39a1.62,1.62,0,0,0,1.63,1c.77,0,1.36-.3,1.36-1s-.54-.83-1.22-1c-1-.25-2.24-.53-2.24-1.81a1.55,1.55,0,0,1,.56-1.21,2.27,2.27,0,0,1,1.47-.49,2.18,2.18,0,0,1,2.07,1.22l-.65.38a1.37,1.37,0,0,0-1.42-.84c-.68,0-1.25.34-1.25.94s.54.83,1.22,1"/><path class="cls-2" d="M90,66.15a.57.57,0,0,1,0-.8.56.56,0,0,1,.81,0,.57.57,0,0,1,0,.8.56.56,0,0,1-.81,0m0,1.43h.79v5.93H90Z"/><path class="cls-2" d="M98.48,67.58h.79v5.7a2.49,2.49,0,0,1-.88,2,3.15,3.15,0,0,1-2.1.74,2.87,2.87,0,0,1-2.82-1.45l.69-.39a2.15,2.15,0,0,0,2.13,1.08,1.94,1.94,0,0,0,2.19-2v-.93a2.65,2.65,0,0,1-2.4,1.31,3,3,0,0,1-2.17-.91,3.18,3.18,0,0,1,0-4.41,3,3,0,0,1,2.17-.9,2.66,2.66,0,0,1,2.4,1.3ZM96.14,72.9a2.28,2.28,0,0,0,1.67-.68,2.3,2.3,0,0,0,.67-1.67,2.27,2.27,0,0,0-.67-1.67,2.38,2.38,0,0,0-3.33,0,2.27,2.27,0,0,0-.67,1.67,2.3,2.3,0,0,0,.67,1.67,2.27,2.27,0,0,0,1.66.68"/><path class="cls-2" d="M106.92,69.87v3.64h-.78V69.87a1.5,1.5,0,0,0-1.61-1.68c-1.14,0-1.93.7-1.93,2.21v3.11h-.78V65.2h.78v3.3a2.35,2.35,0,0,1,4.32,1.37"/><path class="cls-2" d="M112.48,68.34h-1.71v3.59c0,1,.57.94,1.71.89v.69c-1.66.25-2.49-.2-2.49-1.58V68.34h-1.25v-.76H110V66.15l.78-.23v1.66h1.71Z"/><path class="cls-2" d="M117.35,65.82c-1.16-.09-1.71.38-1.71,1.52v.24h1.71v.76h-1.71v5.17h-.79V68.34h-1v-.76h1v-.24a2.08,2.08,0,0,1,2.5-2.28Z"/><path class="cls-2" d="M123.25,67.58H124v5.93h-.78v-.92a2.36,2.36,0,0,1-4.33-1.37V67.58h.79v3.64a1.5,1.5,0,0,0,1.61,1.68c1.14,0,1.93-.7,1.93-2.21Z"/><rect class="cls-2" x="126.58" y="64.85" width="0.78" height="8.67"/><path class="cls-2" d="M130,73.44a.65.65,0,1,1,.92,0,.66.66,0,0,1-.92,0"/><rect class="cls-2" x="137.51" y="65.2" width="0.83" height="8.31"/><path class="cls-2" d="M146.12,69.87v3.64h-.78V69.87a1.5,1.5,0,0,0-1.62-1.68c-1.14,0-1.92.7-1.92,2.21v3.11H141V67.58h.78v.92a2.19,2.19,0,0,1,2-1.07,2.22,2.22,0,0,1,2.33,2.44"/><path class="cls-2" d="M150.37,70.14c1,.25,2.24.52,2.24,1.81a1.49,1.49,0,0,1-.6,1.23,2.38,2.38,0,0,1-1.54.48,2.34,2.34,0,0,1-2.3-1.37l.67-.39a1.62,1.62,0,0,0,1.63,1c.77,0,1.36-.3,1.36-1s-.55-.83-1.22-1c-1-.25-2.25-.53-2.25-1.81a1.52,1.52,0,0,1,.57-1.21,2.26,2.26,0,0,1,1.46-.49,2.18,2.18,0,0,1,2.08,1.22l-.65.38a1.38,1.38,0,0,0-1.43-.84c-.67,0-1.24.34-1.24.94s.54.83,1.22,1"/><path class="cls-2" d="M160.15,68.34a3.15,3.15,0,0,1,0,4.41,2.9,2.9,0,0,1-2.16.91,2.67,2.67,0,0,1-2.4-1.31v3.54h-.78V67.58h.78v1.16a2.68,2.68,0,0,1,2.4-1.3,2.89,2.89,0,0,1,2.16.9m-2.22,4.56a2.36,2.36,0,0,0,1.66-4,2.37,2.37,0,0,0-3.32,0,2.28,2.28,0,0,0-.68,1.67,2.31,2.31,0,0,0,.68,1.67,2.27,2.27,0,0,0,1.66.68"/><path class="cls-2" d="M163.24,66.15a.55.55,0,0,1,0-.8.56.56,0,0,1,.81,0,.57.57,0,0,1,0,.8.56.56,0,0,1-.81,0m0,1.43H164v5.93h-.78Z"/><path class="cls-2" d="M167.37,68.56a1.92,1.92,0,0,1,1.87-1.08v.76a1.75,1.75,0,0,0-1.87,2v3.3h-.78V67.58h.78Z"/><path class="cls-2" d="M175.71,68.37a3.21,3.21,0,0,1,.82,2.2c0,.08,0,.21,0,.37H171.3a2.22,2.22,0,0,0,2.36,2,2.09,2.09,0,0,0,1.91-1l.69.4a3,3,0,0,1-2.61,1.37,3.09,3.09,0,0,1-2.28-.88,3.27,3.27,0,0,1,0-4.45,3,3,0,0,1,2.23-.89,2.62,2.62,0,0,1,2.12.93m-4.41,1.81h4.43a2.21,2.21,0,0,0-.73-1.46,2.09,2.09,0,0,0-1.41-.52,2.21,2.21,0,0,0-2.29,2"/><path class="cls-2" d="M183.78,65.2h.78v8.31h-.78V72.35a2.67,2.67,0,0,1-2.4,1.31,2.94,2.94,0,0,1-2.17-.91,3.15,3.15,0,0,1,0-4.41,2.93,2.93,0,0,1,2.17-.9,2.68,2.68,0,0,1,2.4,1.3Zm-2.34,7.7a2.27,2.27,0,0,0,1.66-.68,2.31,2.31,0,0,0,.68-1.67,2.28,2.28,0,0,0-.68-1.67,2.34,2.34,0,0,0-4,1.67,2.32,2.32,0,0,0,2.34,2.35"/></g></g></svg>